<?xml version="1.0" encoding="utf-8"?>
<!-- Generated by IcoMoon.io -->
<!DOCTYPE svg PUBLIC "-//W3C//DTD SVG 1.1//EN" "http://www.w3.org/Graphics/SVG/1.1/DTD/svg11.dtd">
<svg version="1.1" xmlns="http://www.w3.org/2000/svg" xmlns:xlink="http://www.w3.org/1999/xlink" width="32" height="32" viewBox="0 0 32 32">
<path fill="#000000" d="M2.691 8.015h26.617c1.47 0 2.662-1.191 2.662-2.662s-1.191-2.662-2.662-2.662h-26.617c-1.47 0-2.662 1.191-2.662 2.662s1.191 2.662 2.662 2.662zM29.309 13.338h-26.617c-1.47 0-2.662 1.191-2.662 2.662s1.191 2.662 2.662 2.662h26.617c1.47 0 2.662-1.191 2.662-2.662s-1.191-2.662-2.662-2.662zM29.309 23.985h-26.617c-1.47 0-2.662 1.191-2.662 2.662s1.191 2.662 2.662 2.662h26.617c1.47 0 2.662-1.191 2.662-2.662s-1.191-2.662-2.662-2.662z"></path>
</svg>
